<?xml version="1.0" encoding="UTF-8" standalone="no"?>
<svg xmlns="http://www.w3.org/2000/svg" width="75.320129mm" height="92.604164mm" viewBox="0 0 75.320129 92.604164">
  <g transform="translate(53.548057 -170) scale(1.4843)">
    <path fill="#ff2116" d="M-23.40766 161.09299c-1.45669-1.45669.11934-3.45839 4.39648-5.58397l2.69124-1.33743 1.04845-2.29399c.57665-1.26169 1.43729-3.32036 1.91254-4.5748l.8641-2.28082-.59546-1.68793c-.73217-2.07547-.99326-5.19438-.52872-6.31588.62923-1.51909 2.69029-1.36323 3.50626.26515.63727 1.27176.57212 3.57488-.18329 6.47946l-.6193 2.38125.5455.92604c.30003.50932 1.1764 1.71867 1.9475 2.68743l1.44924 1.80272 1.8033728-.23533c5.72900399-.74758 7.6912472.523 7.6912472 2.34476 0 2.29921-4.4984914 2.48899-8.2760865-.16423-.8499666-.59698-1.4336605-1.19001-1.4336605-1.19001s-2.3665326.48178-3.531704.79583c-1.202707.32417-1.80274.52719-3.564509 1.12186 0 0-.61814.89767-1.02094 1.55026-1.49858 2.4279-3.24833 4.43998-4.49793 5.1723-1.3991.81993-2.86584.87582-3.60433.13733zm2.28605-.81668c.81883-.50607 2.47616-2.46625 3.62341-4.28553l.46449-.73658-2.11497 1.06339c-3.26655 1.64239-4.76093 3.19033-3.98386 4.12664.43653.52598.95874.48237 2.01093-.16792zm21.21809-5.95578c.80089-.56097.68463-1.69142-.22082-2.1472-.70466-.35471-1.2726074-.42759-3.1031574-.40057-1.1249.0767-2.9337647.3034-3.2403347.37237 0 0 .993716.68678 1.434896.93922.58731.33544 2.0145161.95811 3.0565161 1.27706 1.02785.31461 1.6224.28144 2.0729-.0409zm-8.53152-3.54594c-.4847-.50952-1.30889-1.57296-1.83152-2.3632-.68353-.89643-1.02629-1.52887-1.02629-1.52887s-.4996 1.60694-.90948 2.57394l-1.27876 3.16076-.37075.71695s1.971043-.64627 2.97389-.90822c1.0621668-.27744 3.21787-.70134 3.21787-.70134zm-2.74938-11.02573c.12363-1.0375.1761-2.07346-.15724-2.59587-.9246-1.01077-2.04057-.16787-1.85154 2.23517.0636.8084.26443 2.19033.53292 3.04209l.48817 1.54863.34358-1.16638c.18897-.64151.47882-2.02015.64411-3.06364z"/>
  </g>
</svg>