<svg width="50" height="46" viewBox="0 0 50 46" fill="none" xmlns="http://www.w3.org/2000/svg">
<path d="M18.6319 9.349C19.4991 6.52215 23.5009 6.52215 24.3681 9.349L26.0806 14.9312C26.3725 15.8827 27.1173 16.6275 28.0688 16.9194L33.651 18.6319C36.4779 19.4991 36.4779 23.5009 33.651 24.3681L28.0688 26.0806C27.1173 26.3725 26.3725 27.1173 26.0806 28.0688L24.3681 33.651C23.5009 36.4779 19.4991 36.4779 18.6319 33.651L16.9194 28.0688C16.6275 27.1173 15.8827 26.3725 14.9312 26.0806L9.349 24.3681C6.52215 23.5009 6.52215 19.4991 9.349 18.6319L14.9312 16.9194C15.8827 16.6275 16.6275 15.8827 16.9194 14.9312L18.6319 9.349Z" fill="white"/>
<path d="M37.863 28.8443C38.3267 27.189 40.6733 27.189 41.137 28.8443L41.7223 30.9339C41.8741 31.4759 42.2843 31.9076 42.8178 32.0868L45.2039 32.8885C46.7486 33.4076 46.7486 35.5924 45.2039 36.1115L42.8178 36.9132C42.2843 37.0924 41.8741 37.5241 41.7223 38.0661L41.137 40.1557C40.6733 41.811 38.3267 41.811 37.863 40.1557L37.2777 38.0661C37.1259 37.5241 36.7157 37.0924 36.1822 36.9132L33.7961 36.1115C32.2514 35.5924 32.2514 33.4076 33.7961 32.8885L36.1822 32.0868C36.7157 31.9076 37.1259 31.4759 37.2777 30.9339L37.863 28.8443Z" fill="#FDFDFD"/>
</svg>
